<svg width="18" height="18" viewBox="0 0 18 18" fill="none" xmlns="http://www.w3.org/2000/svg">
<path d="M6.75 12.75L11.325 8.175C11.6067 7.8989 11.9858 7.74487 12.3803 7.74627C12.7747 7.74768 13.1528 7.9044 13.4325 8.1825L16.5 11.25M16.5 11.25V3.75C16.5 3.35218 16.342 2.97064 16.0607 2.68934C15.7794 2.40804 15.3978 2.25 15 2.25H3C2.60218 2.25 2.22064 2.40804 1.93934 2.68934C1.65804 2.97064 1.5 3.35218 1.5 3.75V11.25C1.5 11.6478 1.65804 12.0294 1.93934 12.3107C2.22064 12.592 2.60218 12.75 3 12.75H15C15.3978 12.75 15.7794 12.592 16.0607 12.3107C16.342 12.0294 16.5 11.6478 16.5 11.25ZM6 15.75H12M9 12.75V15.75M7.5 6.75C7.5 7.57843 6.82843 8.25 6 8.25C5.17157 8.25 4.5 7.57843 4.5 6.75C4.5 5.92157 5.17157 5.25 6 5.25C6.82843 5.25 7.5 5.92157 7.5 6.75Z" stroke="#0093E5" stroke-linecap="round" stroke-linejoin="round"/>
</svg>
