<svg width="14" height="16" viewBox="0 0 14 16" fill="none" xmlns="http://www.w3.org/2000/svg">
<path d="M6.09117 14.0995C6.20516 14.3068 6.37275 14.4798 6.57642 14.6002C6.78008 14.7206 7.01235 14.7842 7.24897 14.7842C7.48558 14.7842 7.71785 14.7206 7.92152 14.6002C8.12519 14.4798 8.29277 14.3068 8.40677 14.0995M3.16275 5.24572C3.16275 4.16195 3.59327 3.12257 4.35961 2.35623C5.12595 1.58989 6.16533 1.15936 7.2491 1.15936C8.33287 1.15936 9.37225 1.58989 10.1386 2.35623C10.9049 3.12257 11.3355 4.16195 11.3355 5.24572C11.3355 10.0131 13.3786 11.3753 13.3786 11.3753H1.11957C1.11957 11.3753 3.16275 10.0131 3.16275 5.24572Z" stroke="#002266" stroke-width="0.866667" stroke-linecap="round" stroke-linejoin="round"/>
</svg>
