<svg width="10" height="10" viewBox="0 0 10 10" fill="none" xmlns="http://www.w3.org/2000/svg">
<path d="M7 2.5L9 4.5M8 1.5C8.12734 1.34952 8.28485 1.22703 8.46251 1.14034C8.64016 1.05365 8.83405 1.00467 9.03182 0.996505C9.22959 0.988345 9.42691 1.02119 9.61119 1.09294C9.79547 1.1647 9.96268 1.27378 10.1022 1.41326C10.2416 1.55273 10.3503 1.71953 10.4213 1.90302C10.4922 2.08651 10.5239 2.28267 10.5143 2.47899C10.5047 2.67531 10.454 2.86749 10.3654 3.04328C10.2769 3.21907 10.1524 3.37461 10 3.5L3.25 10.25L0.5 11L1.25 8.25L8 1.5Z" stroke="#475569" stroke-linecap="round" stroke-linejoin="round"/>
</svg>
